# Tiled2Unity generated file. Do not modify by hand.
# Wavefront file for 'TestMap_mesh_0002.obj'

# Vertices (Count = 328)
v -544 -256 0
v -560 -256 0
v -560 -240 0
v -544 -240 0
v -528 -256 0
v -544 -256 0
v -544 -240 0
v -528 -240 0
v -512 -256 0
v -528 -256 0
v -528 -240 0
v -512 -240 0
v -496 -256 0
v -512 -256 0
v -512 -240 0
v -496 -240 0
v -480 -256 0
v -496 -256 0
v -496 -240 0
v -480 -240 0
v -464 -256 0
v -480 -256 0
v -480 -240 0
v -464 -240 0
v -448 -256 0
v -464 -256 0
v -464 -240 0
v -448 -240 0
v -432 -256 0
v -448 -256 0
v -448 -240 0
v -432 -240 0
v -416 -256 0
v -432 -256 0
v -432 -240 0
v -416 -240 0
v -400 -256 0
v -416 -256 0
v -416 -240 0
v -400 -240 0
v -384 -256 0
v -400 -256 0
v -400 -240 0
v -384 -240 0
v -544 -272 0
v -560 -272 0
v -560 -256 0
v -544 -256 0
v -528 -272 0
v -544 -272 0
v -544 -256 0
v -528 -256 0
v -512 -272 0
v -528 -272 0
v -528 -256 0
v -512 -256 0
v -496 -272 0
v -512 -272 0
v -512 -256 0
v -496 -256 0
v -480 -272 0
v -496 -272 0
v -496 -256 0
v -480 -256 0
v -464 -272 0
v -480 -272 0
v -480 -256 0
v -464 -256 0
v -448 -272 0
v -464 -272 0
v -464 -256 0
v -448 -256 0
v -432 -272 0
v -448 -272 0
v -448 -256 0
v -432 -256 0
v -416 -272 0
v -432 -272 0
v -432 -256 0
v -416 -256 0
v -400 -272 0
v -416 -272 0
v -416 -256 0
v -400 -256 0
v -384 -272 0
v -400 -272 0
v -400 -256 0
v -384 -256 0
v -544 -288 0
v -560 -288 0
v -560 -272 0
v -544 -272 0
v -528 -288 0
v -544 -288 0
v -544 -272 0
v -528 -272 0
v -512 -288 0
v -528 -288 0
v -528 -272 0
v -512 -272 0
v -496 -288 0
v -512 -288 0
v -512 -272 0
v -496 -272 0
v -480 -288 0
v -496 -288 0
v -496 -272 0
v -480 -272 0
v -464 -288 0
v -480 -288 0
v -480 -272 0
v -464 -272 0
v -448 -288 0
v -464 -288 0
v -464 -272 0
v -448 -272 0
v -432 -288 0
v -448 -288 0
v -448 -272 0
v -432 -272 0
v -416 -288 0
v -432 -288 0
v -432 -272 0
v -416 -272 0
v -400 -288 0
v -416 -288 0
v -416 -272 0
v -400 -272 0
v -384 -288 0
v -400 -288 0
v -400 -272 0
v -384 -272 0
v -640 -320 0
v -656 -320 0
v -656 -304 0
v -640 -304 0
v -624 -320 0
v -640 -320 0
v -640 -304 0
v -624 -304 0
v -608 -320 0
v -624 -320 0
v -624 -304 0
v -608 -304 0
v -640 -336 0
v -656 -336 0
v -656 -320 0
v -640 -320 0
v -624 -336 0
v -640 -336 0
v -640 -320 0
v -624 -320 0
v -608 -336 0
v -624 -336 0
v -624 -320 0
v -608 -320 0
v -560 -336 0
v -576 -336 0
v -576 -320 0
v -560 -320 0
v -544 -336 0
v -560 -336 0
v -560 -320 0
v -544 -320 0
v -528 -336 0
v -544 -336 0
v -544 -320 0
v -528 -320 0
v -512 -336 0
v -528 -336 0
v -528 -320 0
v -512 -320 0
v -496 -336 0
v -512 -336 0
v -512 -320 0
v -496 -320 0
v -640 -352 0
v -656 -352 0
v -656 -336 0
v -640 -336 0
v -624 -352 0
v -640 -352 0
v -640 -336 0
v -624 -336 0
v -608 -352 0
v -624 -352 0
v -624 -336 0
v -608 -336 0
v -560 -352 0
v -576 -352 0
v -576 -336 0
v -560 -336 0
v -544 -352 0
v -560 -352 0
v -560 -336 0
v -544 -336 0
v -528 -352 0
v -544 -352 0
v -544 -336 0
v -528 -336 0
v -512 -352 0
v -528 -352 0
v -528 -336 0
v -512 -336 0
v -496 -352 0
v -512 -352 0
v -512 -336 0
v -496 -336 0
v -640 -368 0
v -656 -368 0
v -656 -352 0
v -640 -352 0
v -624 -368 0
v -640 -368 0
v -640 -352 0
v -624 -352 0
v -608 -368 0
v -624 -368 0
v -624 -352 0
v -608 -352 0
v -560 -368 0
v -576 -368 0
v -576 -352 0
v -560 -352 0
v -544 -368 0
v -560 -368 0
v -560 -352 0
v -544 -352 0
v -528 -368 0
v -544 -368 0
v -544 -352 0
v -528 -352 0
v -512 -368 0
v -528 -368 0
v -528 -352 0
v -512 -352 0
v -496 -368 0
v -512 -368 0
v -512 -352 0
v -496 -352 0
v -640 -384 0
v -656 -384 0
v -656 -368 0
v -640 -368 0
v -624 -384 0
v -640 -384 0
v -640 -368 0
v -624 -368 0
v -608 -384 0
v -624 -384 0
v -624 -368 0
v -608 -368 0
v -560 -384 0
v -576 -384 0
v -576 -368 0
v -560 -368 0
v -544 -384 0
v -560 -384 0
v -560 -368 0
v -544 -368 0
v -528 -384 0
v -544 -384 0
v -544 -368 0
v -528 -368 0
v -512 -384 0
v -528 -384 0
v -528 -368 0
v -512 -368 0
v -496 -384 0
v -512 -384 0
v -512 -368 0
v -496 -368 0
v -640 -400 0
v -656 -400 0
v -656 -384 0
v -640 -384 0
v -624 -400 0
v -640 -400 0
v -640 -384 0
v -624 -384 0
v -608 -400 0
v -624 -400 0
v -624 -384 0
v -608 -384 0
v -560 -400 0
v -576 -400 0
v -576 -384 0
v -560 -384 0
v -544 -400 0
v -560 -400 0
v -560 -384 0
v -544 -384 0
v -528 -400 0
v -544 -400 0
v -544 -384 0
v -528 -384 0
v -512 -400 0
v -528 -400 0
v -528 -384 0
v -512 -384 0
v -496 -400 0
v -512 -400 0
v -512 -384 0
v -496 -384 0
v -640 -416 0
v -656 -416 0
v -656 -400 0
v -640 -400 0
v -624 -416 0
v -640 -416 0
v -640 -400 0
v -624 -400 0
v -608 -416 0
v -624 -416 0
v -624 -400 0
v -608 -400 0
v -640 -432 0
v -656 -432 0
v -656 -416 0
v -640 -416 0
v -624 -432 0
v -640 -432 0
v -640 -416 0
v -624 -416 0
v -608 -432 0
v -624 -432 0
v -624 -416 0
v -608 -416 0

# Texture cooridinates (Count = 36)
vt 0.07024793 0.9695817
vt 0.08677686 0.9695817
vt 0.08677686 1
vt 0.07024793 1
vt 0.05268595 0.9695817
vt 0.06921487 0.9695817
vt 0.06921487 1
vt 0.05268595 1
vt 0.03512397 0.9695817
vt 0.05165289 0.9695817
vt 0.05165289 1
vt 0.03512397 1
vt 0.07024793 0.9372624
vt 0.08677686 0.9372624
vt 0.08677686 0.9676806
vt 0.07024793 0.9676806
vt 0.05268595 0.9372624
vt 0.06921487 0.9372624
vt 0.06921487 0.9676806
vt 0.05268595 0.9676806
vt 0.03512397 0.9372624
vt 0.05165289 0.9372624
vt 0.05165289 0.9676806
vt 0.03512397 0.9676806
vt 0.07024793 0.904943
vt 0.08677686 0.904943
vt 0.08677686 0.9353612
vt 0.07024793 0.9353612
vt 0.05268595 0.904943
vt 0.06921487 0.904943
vt 0.06921487 0.9353612
vt 0.05268595 0.9353612
vt 0.03512397 0.904943
vt 0.05165289 0.904943
vt 0.05165289 0.9353612
vt 0.03512397 0.9353612

# Normal
vn 0 0 -1

# Mesh description
g TestMap_mesh_0002

# Faces
f 1/1/1 2/2/1 3/3/1 4/4/1
f 5/5/1 6/6/1 7/7/1 8/8/1
f 9/5/1 10/6/1 11/7/1 12/8/1
f 13/5/1 14/6/1 15/7/1 16/8/1
f 17/5/1 18/6/1 19/7/1 20/8/1
f 21/5/1 22/6/1 23/7/1 24/8/1
f 25/5/1 26/6/1 27/7/1 28/8/1
f 29/5/1 30/6/1 31/7/1 32/8/1
f 33/5/1 34/6/1 35/7/1 36/8/1
f 37/5/1 38/6/1 39/7/1 40/8/1
f 41/9/1 42/10/1 43/11/1 44/12/1
f 45/13/1 46/14/1 47/15/1 48/16/1
f 49/17/1 50/18/1 51/19/1 52/20/1
f 53/17/1 54/18/1 55/19/1 56/20/1
f 57/17/1 58/18/1 59/19/1 60/20/1
f 61/17/1 62/18/1 63/19/1 64/20/1
f 65/17/1 66/18/1 67/19/1 68/20/1
f 69/17/1 70/18/1 71/19/1 72/20/1
f 73/17/1 74/18/1 75/19/1 76/20/1
f 77/17/1 78/18/1 79/19/1 80/20/1
f 81/17/1 82/18/1 83/19/1 84/20/1
f 85/21/1 86/22/1 87/23/1 88/24/1
f 89/25/1 90/26/1 91/27/1 92/28/1
f 93/29/1 94/30/1 95/31/1 96/32/1
f 97/29/1 98/30/1 99/31/1 100/32/1
f 101/29/1 102/30/1 103/31/1 104/32/1
f 105/29/1 106/30/1 107/31/1 108/32/1
f 109/29/1 110/30/1 111/31/1 112/32/1
f 113/29/1 114/30/1 115/31/1 116/32/1
f 117/29/1 118/30/1 119/31/1 120/32/1
f 121/29/1 122/30/1 123/31/1 124/32/1
f 125/29/1 126/30/1 127/31/1 128/32/1
f 129/33/1 130/34/1 131/35/1 132/36/1
f 133/1/1 134/2/1 135/3/1 136/4/1
f 137/5/1 138/6/1 139/7/1 140/8/1
f 141/9/1 142/10/1 143/11/1 144/12/1
f 145/13/1 146/14/1 147/15/1 148/16/1
f 149/17/1 150/18/1 151/19/1 152/20/1
f 153/21/1 154/22/1 155/23/1 156/24/1
f 157/1/1 158/2/1 159/3/1 160/4/1
f 161/5/1 162/6/1 163/7/1 164/8/1
f 165/5/1 166/6/1 167/7/1 168/8/1
f 169/5/1 170/6/1 171/7/1 172/8/1
f 173/9/1 174/10/1 175/11/1 176/12/1
f 177/13/1 178/14/1 179/15/1 180/16/1
f 181/17/1 182/18/1 183/19/1 184/20/1
f 185/21/1 186/22/1 187/23/1 188/24/1
f 189/13/1 190/14/1 191/15/1 192/16/1
f 193/17/1 194/18/1 195/19/1 196/20/1
f 197/17/1 198/18/1 199/19/1 200/20/1
f 201/17/1 202/18/1 203/19/1 204/20/1
f 205/21/1 206/22/1 207/23/1 208/24/1
f 209/13/1 210/14/1 211/15/1 212/16/1
f 213/17/1 214/18/1 215/19/1 216/20/1
f 217/21/1 218/22/1 219/23/1 220/24/1
f 221/13/1 222/14/1 223/15/1 224/16/1
f 225/17/1 226/18/1 227/19/1 228/20/1
f 229/17/1 230/18/1 231/19/1 232/20/1
f 233/17/1 234/18/1 235/19/1 236/20/1
f 237/21/1 238/22/1 239/23/1 240/24/1
f 241/13/1 242/14/1 243/15/1 244/16/1
f 245/17/1 246/18/1 247/19/1 248/20/1
f 249/21/1 250/22/1 251/23/1 252/24/1
f 253/13/1 254/14/1 255/15/1 256/16/1
f 257/17/1 258/18/1 259/19/1 260/20/1
f 261/17/1 262/18/1 263/19/1 264/20/1
f 265/17/1 266/18/1 267/19/1 268/20/1
f 269/21/1 270/22/1 271/23/1 272/24/1
f 273/13/1 274/14/1 275/15/1 276/16/1
f 277/17/1 278/18/1 279/19/1 280/20/1
f 281/21/1 282/22/1 283/23/1 284/24/1
f 285/25/1 286/26/1 287/27/1 288/28/1
f 289/29/1 290/30/1 291/31/1 292/32/1
f 293/29/1 294/30/1 295/31/1 296/32/1
f 297/29/1 298/30/1 299/31/1 300/32/1
f 301/33/1 302/34/1 303/35/1 304/36/1
f 305/13/1 306/14/1 307/15/1 308/16/1
f 309/17/1 310/18/1 311/19/1 312/20/1
f 313/21/1 314/22/1 315/23/1 316/24/1
f 317/25/1 318/26/1 319/27/1 320/28/1
f 321/29/1 322/30/1 323/31/1 324/32/1
f 325/33/1 326/34/1 327/35/1 328/36/1

