# Tiled2Unity generated file. Do not modify by hand.
# Wavefront file for 'PlayerHome_mesh_0004.obj'

# Vertices (Count = 68)
v -128 -16 0
v -144 -16 0
v -144 0 0
v -128 0 0
v -112 -16 0
v -128 -16 0
v -128 0 0
v -112 0 0
v -96 -16 0
v -112 -16 0
v -112 0 0
v -96 0 0
v -192 -32 0
v -208 -32 0
v -208 -16 0
v -192 -16 0
v -176 -32 0
v -192 -32 0
v -192 -16 0
v -176 -16 0
v -144 -32 0
v -160 -32 0
v -160 -16 0
v -144 -16 0
v -128 -32 0
v -144 -32 0
v -144 -16 0
v -128 -16 0
v -112 -32 0
v -128 -32 0
v -128 -16 0
v -112 -16 0
v -96 -32 0
v -112 -32 0
v -112 -16 0
v -96 -16 0
v -80 -32 0
v -96 -32 0
v -96 -16 0
v -80 -16 0
v -48 -32 0
v -64 -32 0
v -64 -16 0
v -48 -16 0
v -32 -32 0
v -48 -32 0
v -48 -16 0
v -32 -16 0
v -112 -96 0
v -128 -96 0
v -128 -80 0
v -112 -80 0
v -128 -112 0
v -144 -112 0
v -144 -96 0
v -128 -96 0
v -112 -112 0
v -128 -112 0
v -128 -96 0
v -112 -96 0
v -96 -112 0
v -112 -112 0
v -112 -96 0
v -96 -96 0
v -112 -144 0
v -128 -144 0
v -128 -128 0
v -112 -128 0

# Texture cooridinates (Count = 56)
vt 0.5268595 0.4524715
vt 0.5433884 0.4524715
vt 0.5433884 0.4828897
vt 0.5268595 0.4828897
vt 0.4741735 0.4524715
vt 0.4907025 0.4524715
vt 0.4907025 0.4828897
vt 0.4741735 0.4828897
vt 0.4917355 0.4524715
vt 0.5082645 0.4524715
vt 0.5082645 0.4828897
vt 0.4917355 0.4828897
vt 0.7024794 0.6463878
vt 0.7190083 0.6463878
vt 0.7190083 0.6768061
vt 0.7024794 0.6768061
vt 0.6849173 0.6463878
vt 0.7014463 0.6463878
vt 0.7014463 0.6768061
vt 0.6849173 0.6768061
vt 0.9307851 0.2585551
vt 0.947314 0.2585551
vt 0.947314 0.2889734
vt 0.9307851 0.2889734
vt 0.5795454 0.4524715
vt 0.5960744 0.4524715
vt 0.5960744 0.4828897
vt 0.5795454 0.4828897
vt 0.5619835 0.4524715
vt 0.5785124 0.4524715
vt 0.5785124 0.4828897
vt 0.5619835 0.4828897
vt 0.5444215 0.4524715
vt 0.5609504 0.4524715
vt 0.5609504 0.4828897
vt 0.5444215 0.4828897
vt 0.3336777 0.8079848
vt 0.3502066 0.8079848
vt 0.3502066 0.838403
vt 0.3336777 0.838403
vt 0.3512397 0.7756654
vt 0.3677686 0.7756654
vt 0.3677686 0.8060837
vt 0.3512397 0.8060837
vt 0.3688017 0.7756654
vt 0.3853306 0.7756654
vt 0.3853306 0.8060837
vt 0.3688017 0.8060837
vt 0.3336777 0.7756654
vt 0.3502066 0.7756654
vt 0.3502066 0.8060837
vt 0.3336777 0.8060837
vt 0.2634298 0.8726236
vt 0.2799587 0.8726236
vt 0.2799587 0.9030418
vt 0.2634298 0.9030418

# Normal
vn 0 0 -1

# Mesh description
g PlayerHome_mesh_0004

# Faces
f 1/1/1 2/2/1 3/3/1 4/4/1
f 5/5/1 6/6/1 7/7/1 8/8/1
f 9/9/1 10/10/1 11/11/1 12/12/1
f 13/13/1 14/14/1 15/15/1 16/16/1
f 17/17/1 18/18/1 19/19/1 20/20/1
f 21/21/1 22/22/1 23/23/1 24/24/1
f 25/25/1 26/26/1 27/27/1 28/28/1
f 29/29/1 30/30/1 31/31/1 32/32/1
f 33/33/1 34/34/1 35/35/1 36/36/1
f 37/21/1 38/22/1 39/23/1 40/24/1
f 41/13/1 42/14/1 43/15/1 44/16/1
f 45/17/1 46/18/1 47/19/1 48/20/1
f 49/37/1 50/38/1 51/39/1 52/40/1
f 53/41/1 54/42/1 55/43/1 56/44/1
f 57/45/1 58/46/1 59/47/1 60/48/1
f 61/49/1 62/50/1 63/51/1 64/52/1
f 65/53/1 66/54/1 67/55/1 68/56/1

