# Tiled2Unity generated file. Do not modify by hand.
# Wavefront file for 'PlayerHome_mesh_0005.obj'

# Vertices (Count = 28)
v -112 -16 0
v -128 -16 0
v -128 0 0
v -112 0 0
v -128 -32 0
v -144 -32 0
v -144 -16 0
v -128 -16 0
v -112 -32 0
v -128 -32 0
v -128 -16 0
v -112 -16 0
v -96 -32 0
v -112 -32 0
v -112 -16 0
v -96 -16 0
v -128 -112 0
v -144 -112 0
v -144 -96 0
v -128 -96 0
v -112 -112 0
v -128 -112 0
v -128 -96 0
v -112 -96 0
v -96 -112 0
v -112 -112 0
v -112 -96 0
v -96 -96 0

# Texture cooridinates (Count = 24)
vt 0.4566116 0.7110266
vt 0.4731405 0.7110266
vt 0.4731405 0.7414448
vt 0.4566116 0.7414448
vt 0.9307851 0.09695816
vt 0.947314 0.09695816
vt 0.947314 0.1273764
vt 0.9307851 0.1273764
vt 0.9483471 0.7110266
vt 0.9648761 0.7110266
vt 0.9648761 0.7414448
vt 0.9483471 0.7414448
vt 0.7200413 0.4847909
vt 0.7365702 0.4847909
vt 0.7365702 0.5152091
vt 0.7200413 0.5152091
vt 0.7551653 0.4847909
vt 0.7716942 0.4847909
vt 0.7716942 0.5152091
vt 0.7551653 0.5152091
vt 0.7376033 0.4847909
vt 0.7541322 0.4847909
vt 0.7541322 0.5152091
vt 0.7376033 0.5152091

# Normal
vn 0 0 -1

# Mesh description
g PlayerHome_mesh_0005

# Faces
f 1/1/1 2/2/1 3/3/1 4/4/1
f 5/5/1 6/6/1 7/7/1 8/8/1
f 9/9/1 10/10/1 11/11/1 12/12/1
f 13/5/1 14/6/1 15/7/1 16/8/1
f 17/13/1 18/14/1 19/15/1 20/16/1
f 21/17/1 22/18/1 23/19/1 24/20/1
f 25/21/1 26/22/1 27/23/1 28/24/1

